<svg xmlns="http://www.w3.org/2000/svg" viewBox="0 0 100 100"><defs><style>.cls-1{fill:#fff;}</style></defs><title>toilet-100x100</title><g id="Layer_2" data-name="Layer 2"><g id="Layer_1-2" data-name="Layer 1"><circle cx="50" cy="50" r="50"/><path class="cls-1" d="M81.09,32.42h-.19c-.35,4.23-1.62,5.49-5.84,5.84v.19c4.23.35,5.49,1.61,5.84,5.84h.19c.35-4.23,1.62-5.49,5.84-5.84v-.19C82.7,37.92,81.44,36.65,81.09,32.42Z"/><path class="cls-1" d="M75.45,45.25a1.4,1.4,0,1,0,0-2.8H37.68V29.68a3,3,0,0,0-3-3H22.05a3,3,0,0,0-3,3V78H61.74l3.4-16.38C76.91,58,75.85,51.64,75.85,51.64V47H37.68V45.25Zm-19.6,9.41c3.63-.3,4.72-1.39,5-5H61c.3,3.63,1.39,4.72,5,5v.16c-3.63.3-4.72,1.39-5,5h-.16c-.3-3.63-1.39-4.72-5-5Z"/><path class="cls-1" d="M52,31.51h-.14c-.26,3.08-1.18,4-4.25,4.25v.14c3.08.26,4,1.18,4.25,4.25H52c.26-3.08,1.18-4,4.25-4.25v-.14C53.13,35.51,52.21,34.59,52,31.51Z"/><path class="cls-1" d="M65.89,22h-.22c-.4,4.86-1.85,6.31-6.71,6.71V29c4.86.4,6.31,1.85,6.71,6.71h.22c.4-4.86,1.85-6.31,6.71-6.71v-.22C67.74,28.33,66.29,26.88,65.89,22Z"/></g></g></svg>